<?xml version="1.0" encoding="utf-8"?>
<svg xmlns="http://www.w3.org/2000/svg" xmlns:xlink="http://www.w3.org/1999/xlink" width="340"
  height="340" viewBox="90 78 340 340">
  <path fill="#0975BE"
    d="M341.313 98.7908C341.391 98.8029 341.47 98.8048 341.546 98.8269C346.096 100.162 357.363 119.931 359.717 124.736C378.503 163.091 381.403 211.176 367.477 251.464C363.148 264.09 356.833 275.945 348.77 286.581C346.673 289.383 344.209 292.918 341.013 294.474C340.604 289.3 340.56 283.907 339.595 278.811C335.753 256.377 324.943 238.556 304.069 228.116C302.213 227.188 290.663 223.044 290.214 222.061C289.725 220.99 289.833 170.08 290.435 168.218C290.61 167.678 291.201 167.459 291.675 167.226C293.877 166.14 296.322 165.371 298.602 164.444C301.447 163.288 304.268 161.854 306.927 160.317C323.968 150.466 334.429 135.956 338.391 116.676C339.604 110.772 339.78 104.6 341.313 98.7908Z" />
  <defs>
    <linearGradient id="gradient_0" gradientUnits="userSpaceOnUse" x1="130.41101" y1="262.71164"
      x2="221.23282" y2="130.04453">
      <stop offset="0" stop-color="#06599F" />
      <stop offset="1" stop-color="#0885D1" />
    </linearGradient>
  </defs>
  <path fill="url(#gradient_0)"
    d="M175.868 98.1486C175.972 98.1866 176.082 98.2115 176.18 98.2627C177.312 98.8554 177.1 101.924 177.18 103.12C177.798 112.358 179.448 121.188 182.708 129.865C187.966 143.862 199.756 155.144 212.923 161.799C217.543 164.134 222.494 165.794 227.203 167.94C227.614 171.643 227.511 175.417 227.512 179.137L227.503 194.716C227.496 203.969 227.988 213.452 227.467 222.682C218.049 225.462 208.304 229.963 200.718 236.281C188.059 246.825 179.322 262.522 177.867 279.061C177.12 284.462 176.66 289.899 176.777 295.358C175.712 294.522 174.708 293.581 173.746 292.629C168.976 287.91 165.041 282.081 161.601 276.353C147.031 252.096 141.45 224.012 141.495 195.975C141.547 163.359 152.203 121.745 175.868 98.1486Z" />
  <path fill="#0975BE"
    d="M276.399 258.753L276.754 258.825C277.667 259.975 277.799 380.085 277.063 391.545C269.756 386.991 262.65 382.122 255.374 377.519C250.55 374.062 245.437 370.983 240.573 367.568C240.142 364.788 240.357 361.77 240.362 358.953L240.339 345.363L240.326 316.719C240.335 310.755 240.18 304.751 240.504 298.795C240.516 298.565 240.52 298.292 240.553 298.06C240.714 296.941 241.935 295.666 242.656 294.821C245.297 291.724 248.273 288.862 251.066 285.895L263.905 272.019C267.669 267.967 272.19 262.074 276.399 258.753Z" />
  <defs>
    <linearGradient id="gradient_1" gradientUnits="userSpaceOnUse" x1="368.86276" y1="265.34415"
      x2="406.61349" y2="141.58415">
      <stop offset="0" stop-color="#0C6CB4" />
      <stop offset="1" stop-color="#159FE4" />
    </linearGradient>
  </defs>
  <path fill="url(#gradient_1)"
    d="M378.62 132.69C381.26 133.231 383.772 134.347 386.292 135.278C390.471 136.79 394.621 138.377 398.742 140.04C401.158 141.039 402.87 141.913 403.9 144.469C405.657 148.832 406.31 154.203 407.223 158.83C412.786 187.033 412.783 213.611 406.616 241.741C405.332 247.596 404.168 253.884 401.801 259.395C399.222 261.194 396.01 262.317 393.021 263.249C389.831 264.318 378.689 269.169 376.104 268.078C375.888 266.373 380.546 253.259 381.256 250.719C384.866 237.808 387.561 224.401 388.238 210.99C389.169 192.54 387.91 174.262 383.669 156.249C382.65 151.88 381.538 147.534 380.334 143.213C379.662 140.86 377.975 136.736 377.84 134.494C377.793 133.708 378.119 133.255 378.62 132.69Z" />
  <defs>
    <linearGradient id="gradient_2" gradientUnits="userSpaceOnUse" x1="119.84106" y1="266.08371"
      x2="132.65439" y2="132.96141">
      <stop offset="0" stop-color="#09569B" />
      <stop offset="1" stop-color="#0A75BD" />
    </linearGradient>
  </defs>
  <path fill="url(#gradient_2)"
    d="M138.328 133.02C138.929 133.156 138.905 133.174 139.266 133.679C139.52 136.074 135.71 147.714 134.915 150.885C134.007 154.56 133.194 158.258 132.476 161.976C128.229 183.611 127.764 205.819 131.102 227.612C132.773 238.492 135.361 249.211 138.839 259.654C139.44 261.469 141.697 267.049 141.158 268.577C137.729 268.819 128.647 264.774 125.058 263.436C121.831 262.14 118.123 261.179 115.282 259.13C115.055 258.509 114.842 257.883 114.643 257.253C112.807 251.48 111.481 245.361 110.27 239.429C104.55 212.747 104.575 185.153 110.343 158.481C111.213 154.406 112.459 146.583 114.331 143.179C114.853 142.228 115.677 141.66 116.604 141.14C120.94 138.706 133.331 134.434 138.328 133.02Z" />
  <defs>
    <linearGradient id="gradient_3" gradientUnits="userSpaceOnUse" x1="243.82121" y1="188.10278"
      x2="269.29489" y2="117.15993">
      <stop offset="0" stop-color="#077BC6" />
      <stop offset="1" stop-color="#1093DC" />
    </linearGradient>
  </defs>
  <path fill="url(#gradient_3)"
    d="M240.358 106.169C240.481 106.177 240.603 106.179 240.725 106.193C241.129 106.239 241.383 106.393 241.696 106.64C247.59 111.306 253.019 116.535 258.769 121.369C261.075 123.308 263.325 125.332 265.641 127.251C269.028 130.06 273.13 133.019 275.946 136.411L276.199 136.721C276.354 136.908 276.493 137.055 276.626 137.257C276.981 137.795 277.049 138.417 277.089 139.045C277.74 149.283 277.248 159.822 277.216 170.095L277.173 180.377C277.171 182.59 277.347 184.804 277.023 187C276.582 187.628 276.572 187.571 275.812 187.724C271.467 188.072 267.127 187.816 262.774 187.798L240.111 187.755C239.864 184.185 240.189 180.413 240.194 176.822C240.154 168.731 240.159 160.64 240.207 152.549L240.182 122.04C240.19 116.7 240.065 111.511 240.358 106.169Z" />
  <path fill="#0975BE"
    d="M240.781 203.568C247.283 203.163 253.941 203.436 260.461 203.446C265.924 203.454 271.605 203.14 277.034 203.638C277.177 210.42 277.219 217.204 277.162 223.987C277.162 229.035 277.28 234.155 276.957 239.192C275.01 242.307 271.903 244.942 269.424 247.667C265.765 251.687 262.332 255.866 258.431 259.664C256.477 261.633 254.703 263.873 252.843 265.938C250.089 268.997 247.23 271.97 244.441 274.999C243.521 275.999 242.092 277.833 240.67 277.893C240.191 276.695 240.154 211.579 240.422 205.395C240.451 204.727 240.544 204.198 240.781 203.568Z" />
</svg>
