<?xml version="1.0" encoding="UTF-8"?>
<!DOCTYPE svg PUBLIC "-//W3C//DTD SVG 1.1//EN" "http://www.w3.org/Graphics/SVG/1.1/DTD/svg11.dtd">
<svg xmlns="http://www.w3.org/2000/svg" version="1.1" width="735px" height="132px" viewBox="45 93 735 132" style="shape-rendering:geometricPrecision; text-rendering:geometricPrecision; image-rendering:optimizeQuality; fill-rule:evenodd; clip-rule:evenodd" xmlns:xlink="http://www.w3.org/1999/xlink">
<g><path style="opacity:1" fill="#0d88d1" d="M 106.5,96.5 C 112.728,100.55 118.562,105.216 124,110.5C 124.499,114.152 124.665,117.818 124.5,121.5C 118.5,121.5 112.5,121.5 106.5,121.5C 106.118,113.219 106.118,104.886 106.5,96.5 Z"/></g>
<g><path style="opacity:1" fill="#0b79c2" d="M 101.5,123.5 C 101.414,124.496 101.748,125.329 102.5,126C 104.256,126.202 105.922,126.702 107.5,127.5C 106.167,128.5 106.167,129.5 107.5,130.5C 106.833,131.167 106.167,131.833 105.5,132.5C 107.743,133.474 110.076,133.808 112.5,133.5C 112.5,134.5 112.5,135.5 112.5,136.5C 116.406,135.643 120.24,135.643 124,136.5C 125.818,134.355 127.318,134.355 128.5,136.5C 129.711,135.726 129.711,134.893 128.5,134C 129.833,133.333 131.167,133.333 132.5,134C 131.396,135.131 131.729,135.965 133.5,136.5C 137.451,133.709 140.951,134.043 144,137.5C 146.333,134.833 148.667,134.833 151,137.5C 151.333,137.167 151.667,136.833 152,136.5C 153.596,140.165 156.096,141.998 159.5,142C 159.167,142.333 158.833,142.667 158.5,143C 162.191,146.495 165.191,149.661 167.5,152.5C 166.194,164.445 161.194,174.445 152.5,182.5C 151.107,177.152 149.607,171.819 148,166.5C 143.743,157.28 136.577,151.78 126.5,150C 119.513,148.416 112.513,148.25 105.5,149.5C 104.402,148.603 104.402,147.77 105.5,147C 103.109,146.309 103.109,145.309 105.5,144C 101.506,141 97.1726,138.5 92.5,136.5C 91.2888,135.726 91.2888,134.893 92.5,134C 90.7703,132.148 89.6036,132.314 89,134.5C 85.2635,132.982 81.4302,131.648 77.5,130.5C 76.914,130.709 76.414,131.043 76,131.5C 74.6667,128.833 73.3333,126.167 72,123.5C 71.6667,123.833 71.3333,124.167 71,124.5C 69.1706,122.844 67.8372,120.844 67,118.5C 66.3292,119.252 65.4959,119.586 64.5,119.5C 66.6467,109.538 71.1467,100.871 78,93.5C 78.9454,93.9054 79.6121,94.572 80,95.5C 80.7013,110.01 87.8679,119.343 101.5,123.5 Z"/></g>
<g><path style="opacity:1" fill="#0e83cb" d="M 679.5,134.5 C 679.062,134.565 678.728,134.399 678.5,134C 679.672,133.581 680.672,132.915 681.5,132C 678.874,131.123 675.874,130.623 672.5,130.5C 672.785,128.712 672.452,127.045 671.5,125.5C 670.201,126.09 669.368,127.09 669,128.5C 667.68,128.201 666.18,128.034 664.5,128C 666.5,126.667 668.167,125 669.5,123C 667.563,122.878 666.23,122.045 665.5,120.5C 681.63,112.744 697.963,112.577 714.5,120C 715.574,120.739 716.241,121.739 716.5,123C 714.735,127.461 713.068,131.961 711.5,136.5C 710.667,136.833 709.833,137.167 709,137.5C 699.46,133.581 689.626,132.581 679.5,134.5 Z"/></g>
<g><path style="opacity:1" fill="#1581c6" d="M 168.5,109.5 C 173.102,110.089 177.269,111.756 181,114.5C 185.991,131.975 185.657,149.308 180,166.5C 176.241,169.127 172.075,170.794 167.5,171.5C 168.996,164.18 170.496,156.846 172,149.5C 173.533,136.277 172.033,123.444 167.5,111C 168.056,110.617 168.389,110.117 168.5,109.5 Z"/></g>
<g><path style="opacity:0.986" fill="#4f5354" d="M 227.5,124.5 C 227.762,125.978 227.429,127.311 226.5,128.5C 225.914,128.291 225.414,127.957 225,127.5C 221.003,130.664 217.17,133.998 213.5,137.5C 214.167,138.167 214.833,138.833 215.5,139.5C 212.646,142.188 209.646,144.688 206.5,147C 207.549,147.492 208.549,147.326 209.5,146.5C 210.978,149.065 211.978,151.399 212.5,153.5C 214.602,151.796 216.935,150.463 219.5,149.5C 220.711,150.274 220.711,151.107 219.5,152C 220.448,152.483 221.448,152.649 222.5,152.5C 221.853,165.544 222.52,178.211 224.5,190.5C 224.67,191.822 224.337,192.989 223.5,194C 216.508,194.5 209.508,194.666 202.5,194.5C 202.5,168.5 202.5,142.5 202.5,116.5C 208.842,116.334 215.175,116.5 221.5,117C 224.094,119.086 226.094,121.586 227.5,124.5 Z"/></g>
<g><path style="opacity:0.998" fill="#555959" d="M 370.5,116.5 C 385.17,116.333 399.837,116.5 414.5,117C 431.99,120.816 440.157,131.649 439,149.5C 437.639,158.387 433.139,165.22 425.5,170C 430.5,177.667 435.5,185.333 440.5,193C 440.167,193.333 439.833,193.667 439.5,194C 432.167,194.667 424.833,194.667 417.5,194C 412.743,187.154 407.743,180.488 402.5,174C 399.24,173.216 396.073,173.383 393,174.5C 392.813,181.081 392.313,187.581 391.5,194C 384.476,194.831 377.476,194.664 370.5,193.5C 369.167,167.804 369.167,142.137 370.5,116.5 Z M 393.5,134.5 C 399.262,134.149 404.928,134.649 410.5,136C 416.393,139.821 417.893,144.988 415,151.5C 413.421,153.041 411.587,154.208 409.5,155C 403.843,155.499 398.176,155.666 392.5,155.5C 392.205,148.412 392.538,141.412 393.5,134.5 Z"/></g>
<g><path style="opacity:0.99" fill="#555859" d="M 514.5,116.5 C 534.167,116.5 553.833,116.5 573.5,116.5C 573.5,122.5 573.5,128.5 573.5,134.5C 560.833,134.5 548.167,134.5 535.5,134.5C 535.5,135.5 535.5,136.5 535.5,137.5C 534.399,136.152 533.399,134.652 532.5,133C 532.833,132.667 533.167,132.333 533.5,132C 532.216,131.316 531.049,131.483 530,132.5C 526.182,129.391 522.016,128.057 517.5,128.5C 517.117,125.538 518.117,124.538 520.5,125.5C 521.308,125.192 521.975,124.692 522.5,124C 520.854,122.445 520.521,120.779 521.5,119C 518.639,119.03 516.305,118.197 514.5,116.5 Z"/></g>
<g><path style="opacity:1" fill="#0f7bc3" d="M 604.5,173.5 C 603.671,174.332 602.838,173.999 602,172.5C 600.897,168.772 598.897,165.772 596,163.5C 595.531,165.108 594.865,166.775 594,168.5C 593.654,166.782 593.154,165.115 592.5,163.5C 592.868,161.2 592.868,159.033 592.5,157C 594,154.833 595.167,155 596,157.5C 596.449,154.293 597.116,151.293 598,148.5C 596.041,149.748 594.541,151.415 593.5,153.5C 592.749,152.624 592.249,151.624 592,150.5C 591.564,152.847 591.064,155.181 590.5,157.5C 590.539,160.278 590.872,163.112 591.5,166C 590.851,168.481 589.851,168.814 588.5,167C 589.635,162.252 589.802,157.419 589,152.5C 586.477,155.103 585.81,158.103 587,161.5C 586.167,160.5 585.333,159.5 584.5,158.5C 582.806,160.047 581.473,161.88 580.5,164C 582.421,167.755 583.088,171.588 582.5,175.5C 581.735,174.388 580.735,173.721 579.5,173.5C 577.483,155.237 576.983,136.904 578,118.5C 581.402,117.211 585.069,116.544 589,116.5C 592.75,116.517 596.417,116.851 600,117.5C 600.333,132.833 600.667,148.167 601,163.5C 601.688,167.068 602.855,170.401 604.5,173.5 Z"/></g>
<g><path style="opacity:0.996" fill="#0b6eb6" d="M 105.5,149.5 C 89.3994,153.023 80.7328,163.023 79.5,179.5C 79.1667,180.5 78.8333,181.5 78.5,182.5C 70.833,175.507 65.9997,166.841 64,156.5C 61.8895,144.112 62.0561,131.779 64.5,119.5C 65.4959,119.586 66.3292,119.252 67,118.5C 67.8372,120.844 69.1706,122.844 71,124.5C 71.3333,124.167 71.6667,123.833 72,123.5C 73.3333,126.167 74.6667,128.833 76,131.5C 76.414,131.043 76.914,130.709 77.5,130.5C 81.4302,131.648 85.2635,132.982 89,134.5C 89.6036,132.314 90.7703,132.148 92.5,134C 91.2888,134.893 91.2888,135.726 92.5,136.5C 97.1726,138.5 101.506,141 105.5,144C 103.109,145.309 103.109,146.309 105.5,147C 104.402,147.77 104.402,148.603 105.5,149.5 Z"/></g>
<g><path style="opacity:1" fill="#0b83cb" d="M 167.5,152.5 C 165.191,149.661 162.191,146.495 158.5,143C 158.833,142.667 159.167,142.333 159.5,142C 156.096,141.998 153.596,140.165 152,136.5C 151.667,136.833 151.333,137.167 151,137.5C 148.667,134.833 146.333,134.833 144,137.5C 140.951,134.043 137.451,133.709 133.5,136.5C 131.729,135.965 131.396,135.131 132.5,134C 131.167,133.333 129.833,133.333 128.5,134C 129.711,134.893 129.711,135.726 128.5,136.5C 127.318,134.355 125.818,134.355 124,136.5C 120.24,135.643 116.406,135.643 112.5,136.5C 112.5,135.5 112.5,134.5 112.5,133.5C 110.076,133.808 107.743,133.474 105.5,132.5C 106.167,131.833 106.833,131.167 107.5,130.5C 106.167,129.5 106.167,128.5 107.5,127.5C 105.922,126.702 104.256,126.202 102.5,126C 101.748,125.329 101.414,124.496 101.5,123.5C 113.414,126.671 125.08,125.838 136.5,121C 146.071,114.364 151.405,105.198 152.5,93.5C 159.061,100.616 163.561,108.95 166,118.5C 168.647,129.741 169.147,141.074 167.5,152.5 Z"/></g>
<g><path style="opacity:1" fill="#545858" d="M 330.5,115.5 C 333.605,117.4 336.938,119.234 340.5,121C 339.551,121.617 338.718,121.451 338,120.5C 337.383,121.449 337.549,122.282 338.5,123C 335.237,125.027 332.07,127.194 329,129.5C 327.869,128.396 327.035,128.729 326.5,130.5C 326.977,131.478 327.643,132.311 328.5,133C 325.24,132.518 321.907,132.518 318.5,133C 319.737,133.232 320.737,133.732 321.5,134.5C 309.312,136.028 302.979,143.028 302.5,155.5C 302.811,166.502 308.144,173.502 318.5,176.5C 319.514,177.765 321.014,178.431 323,178.5C 326.015,178.358 328.849,177.858 331.5,177C 331.167,177.333 330.833,177.667 330.5,178C 330.667,182.334 332.167,183.167 335,180.5C 335.684,181.784 335.517,182.951 334.5,184C 338.348,182.669 340.015,184.169 339.5,188.5C 345.558,187.802 345.225,188.969 338.5,192C 339.094,192.464 339.761,192.631 340.5,192.5C 334.87,194.897 328.87,195.897 322.5,195.5C 294.116,193.949 279.949,178.949 280,150.5C 284.623,127.415 298.79,115.415 322.5,114.5C 325.217,114.614 327.884,114.948 330.5,115.5 Z"/></g>
<g><path style="opacity:1" fill="#535757" d="M 514.5,116.5 C 516.305,118.197 518.639,119.03 521.5,119C 520.521,120.779 520.854,122.445 522.5,124C 521.975,124.692 521.308,125.192 520.5,125.5C 518.117,124.538 517.117,125.538 517.5,128.5C 522.016,128.057 526.182,129.391 530,132.5C 531.049,131.483 532.216,131.316 533.5,132C 533.167,132.333 532.833,132.667 532.5,133C 533.399,134.652 534.399,136.152 535.5,137.5C 534.321,140.371 534.321,143.204 535.5,146C 546.515,146.168 557.515,146.668 568.5,147.5C 569.022,148.607 569.355,149.774 569.5,151C 569.447,154.999 569.113,158.999 568.5,163C 557.578,164.431 546.578,164.931 535.5,164.5C 534.483,168.394 534.483,172.227 535.5,176C 548.167,176.333 560.833,176.667 573.5,177C 574.639,182.416 574.806,187.916 574,193.5C 553.667,194.833 533.333,194.833 513,193.5C 512.333,168.167 512.333,142.833 513,117.5C 513.383,116.944 513.883,116.611 514.5,116.5 Z"/></g>
<g><path style="opacity:0.996" fill="#0b80c8" d="M 665.5,120.5 C 666.23,122.045 667.563,122.878 669.5,123C 668.167,125 666.5,126.667 664.5,128C 666.18,128.034 667.68,128.201 669,128.5C 669.368,127.09 670.201,126.09 671.5,125.5C 672.452,127.045 672.785,128.712 672.5,130.5C 675.874,130.623 678.874,131.123 681.5,132C 680.672,132.915 679.672,133.581 678.5,134C 678.728,134.399 679.062,134.565 679.5,134.5C 676.899,137.337 676.899,140.17 679.5,143C 689.244,145.749 698.911,148.749 708.5,152C 719.837,159.845 722.503,170.012 716.5,182.5C 716.803,179.227 716.803,175.894 716.5,172.5C 712.764,173.008 711.264,175.008 712,178.5C 711.586,178.043 711.086,177.709 710.5,177.5C 709.767,172.564 709.267,167.564 709,162.5C 708.627,164.698 708.127,166.865 707.5,169C 708.286,170.752 708.12,172.586 707,174.5C 706.667,174.167 706.333,173.833 706,173.5C 705.692,174.308 705.192,174.975 704.5,175.5C 703.369,173.926 703.202,172.259 704,170.5C 704.743,172.645 705.576,172.811 706.5,171C 705.852,169.56 705.519,168.06 705.5,166.5C 703.194,166.007 700.861,165.674 698.5,165.5C 700.213,169.79 699.713,173.79 697,177.5C 694.367,179.16 691.534,179.66 688.5,179C 689.056,178.617 689.389,178.117 689.5,177.5C 697.41,177.155 699.077,173.988 694.5,168C 686.549,165.542 678.549,163.209 670.5,161C 654.9,153.698 651.066,142.198 659,126.5C 661.037,124.294 663.203,122.294 665.5,120.5 Z"/></g>
<g><path style="opacity:1" fill="#545857" d="M 470.5,114.5 C 480.795,114.09 490.795,115.59 500.5,119C 502.513,119.68 503.846,121.013 504.5,123C 503,127.5 501.5,132 500,136.5C 499.311,137.357 498.478,138.023 497.5,138.5C 488.703,133.864 479.37,132.364 469.5,134C 465.128,136.195 464.461,139.195 467.5,143C 477.213,145.845 486.88,148.845 496.5,152C 509.039,159.734 511.872,170.234 505,183.5C 500.224,189.476 494.057,193.309 486.5,195C 472.033,196.865 458.033,195.198 444.5,190C 443.196,189.196 442.529,188.029 442.5,186.5C 443.566,182.803 444.732,179.136 446,175.5C 446.481,173.522 447.647,172.189 449.5,171.5C 457.507,175.627 466.007,177.96 475,178.5C 478.473,177.957 481.806,176.957 485,175.5C 485.758,173.231 485.591,171.064 484.5,169C 474.934,165.751 465.268,162.751 455.5,160C 445.69,155.215 441.523,147.382 443,136.5C 444.416,128.743 448.583,122.91 455.5,119C 460.414,116.747 465.414,115.247 470.5,114.5 Z"/></g>
<g><path style="opacity:1" fill="#555858" d="M 230.5,161.5 C 232.394,162.048 234.06,163.048 235.5,164.5C 237.03,161.813 239.197,159.813 242,158.5C 244.113,156.729 243.947,155.229 241.5,154C 243,151.833 244.167,152 245,154.5C 246.123,151.044 245.29,148.21 242.5,146C 243.094,145.536 243.761,145.369 244.5,145.5C 246.464,149.073 249.131,152.073 252.5,154.5C 252.48,141.841 252.813,129.174 253.5,116.5C 260.755,116.187 267.921,116.52 275,117.5C 275.667,142.833 275.667,168.167 275,193.5C 268.916,194.642 262.749,194.809 256.5,194C 247.62,183.292 238.953,172.459 230.5,161.5 Z"/></g>
<g><path style="opacity:1" fill="#535757" d="M 227.5,124.5 C 233.396,131.277 239.062,138.277 244.5,145.5C 243.761,145.369 243.094,145.536 242.5,146C 245.29,148.21 246.123,151.044 245,154.5C 244.167,152 243,151.833 241.5,154C 243.947,155.229 244.113,156.729 242,158.5C 239.197,159.813 237.03,161.813 235.5,164.5C 234.06,163.048 232.394,162.048 230.5,161.5C 228.53,159.353 226.697,157.02 225,154.5C 224.5,166.495 224.333,178.495 224.5,190.5C 222.52,178.211 221.853,165.544 222.5,152.5C 221.448,152.649 220.448,152.483 219.5,152C 220.711,151.107 220.711,150.274 219.5,149.5C 216.935,150.463 214.602,151.796 212.5,153.5C 211.978,151.399 210.978,149.065 209.5,146.5C 208.549,147.326 207.549,147.492 206.5,147C 209.646,144.688 212.646,142.188 215.5,139.5C 214.833,138.833 214.167,138.167 213.5,137.5C 217.17,133.998 221.003,130.664 225,127.5C 225.414,127.957 225.914,128.291 226.5,128.5C 227.429,127.311 227.762,125.978 227.5,124.5 Z"/></g>
<g><path style="opacity:1" fill="#106eb1" d="M 58.5,109.5 C 59.8333,109.5 61.1667,109.5 62.5,109.5C 56.9332,130.263 57.2665,150.93 63.5,171.5C 59.1876,170.674 55.0209,169.34 51,167.5C 45.3924,149.962 45.0591,132.295 50,114.5C 52.7465,112.545 55.5798,110.878 58.5,109.5 Z"/></g>
<g><path style="opacity:1" fill="#127ec8" d="M 613.5,116.5 C 618.244,118.975 622.411,122.308 626,126.5C 627.149,129.393 627.649,132.393 627.5,135.5C 624.579,135.854 622.246,134.854 620.5,132.5C 619.348,135.106 619.182,137.773 620,140.5C 622.027,142.527 624.027,144.527 626,146.5C 626.497,149.146 626.664,151.813 626.5,154.5C 623.675,154.919 621.509,153.919 620,151.5C 619.667,154.833 619.333,158.167 619,161.5C 616.281,162.444 613.448,162.777 610.5,162.5C 610.665,158.818 610.499,155.152 610,151.5C 608.266,153.451 606.099,154.451 603.5,154.5C 603.336,151.813 603.503,149.146 604,146.5C 605.721,144.289 607.721,142.289 610,140.5C 610.818,137.773 610.652,135.106 609.5,132.5C 607.999,133.752 606.332,134.752 604.5,135.5C 603.345,132.554 603.179,129.554 604,126.5C 607.371,123.297 610.538,119.964 613.5,116.5 Z"/></g>
<g><path style="opacity:1" fill="#565959" d="M 330.5,115.5 C 352.074,120.079 363.741,133.412 365.5,155.5C 364.613,173.024 356.28,185.357 340.5,192.5C 339.761,192.631 339.094,192.464 338.5,192C 345.225,188.969 345.558,187.802 339.5,188.5C 340.015,184.169 338.348,182.669 334.5,184C 335.517,182.951 335.684,181.784 335,180.5C 332.167,183.167 330.667,182.334 330.5,178C 330.833,177.667 331.167,177.333 331.5,177C 328.849,177.858 326.015,178.358 323,178.5C 321.014,178.431 319.514,177.765 318.5,176.5C 333.265,177.409 341.265,170.409 342.5,155.5C 341.748,142.081 334.748,135.081 321.5,134.5C 320.737,133.732 319.737,133.232 318.5,133C 321.907,132.518 325.24,132.518 328.5,133C 327.643,132.311 326.977,131.478 326.5,130.5C 327.035,128.729 327.869,128.396 329,129.5C 332.07,127.194 335.237,125.027 338.5,123C 337.549,122.282 337.383,121.449 338,120.5C 338.718,121.451 339.551,121.617 340.5,121C 336.938,119.234 333.605,117.4 330.5,115.5 Z"/></g>
<g><path style="opacity:1" fill="#0b74bd" d="M 604.5,173.5 C 611.532,177.495 618.532,177.495 625.5,173.5C 626.542,174.791 627.708,174.791 629,173.5C 630.252,170.986 630.752,168.32 630.5,165.5C 633.683,165.929 636.016,167.596 637.5,170.5C 636.673,172.941 636.673,175.107 637.5,177C 635.709,177.415 634.376,178.415 633.5,180C 634.784,180.684 635.951,180.517 637,179.5C 637.353,180.672 637.187,181.838 636.5,183C 637.816,184.659 639.482,185.825 641.5,186.5C 637.235,191.135 631.902,193.968 625.5,195C 618.5,195.667 611.5,195.667 604.5,195C 592.312,192.312 583.979,185.146 579.5,173.5C 580.735,173.721 581.735,174.388 582.5,175.5C 583.088,171.588 582.421,167.755 580.5,164C 581.473,161.88 582.806,160.047 584.5,158.5C 585.333,159.5 586.167,160.5 587,161.5C 585.81,158.103 586.477,155.103 589,152.5C 589.802,157.419 589.635,162.252 588.5,167C 589.851,168.814 590.851,168.481 591.5,166C 590.872,163.112 590.539,160.278 590.5,157.5C 591.064,155.181 591.564,152.847 592,150.5C 592.249,151.624 592.749,152.624 593.5,153.5C 594.541,151.415 596.041,149.748 598,148.5C 597.116,151.293 596.449,154.293 596,157.5C 595.167,155 594,154.833 592.5,157C 592.868,159.033 592.868,161.2 592.5,163.5C 593.154,165.115 593.654,166.782 594,168.5C 594.865,166.775 595.531,165.108 596,163.5C 598.897,165.772 600.897,168.772 602,172.5C 602.838,173.999 603.671,174.332 604.5,173.5 Z"/></g>
<g><path style="opacity:0.972" fill="#1069b1" d="M 106.5,152.5 C 112.176,152.334 117.843,152.501 123.5,153C 124.576,154.726 124.743,156.559 124,158.5C 118.291,164.041 112.791,169.708 107.5,175.5C 106.503,167.862 106.169,160.196 106.5,152.5 Z"/></g>
<g><path style="opacity:1" fill="#0c7cc4" d="M 641.5,186.5 C 639.482,185.825 637.816,184.659 636.5,183C 637.187,181.838 637.353,180.672 637,179.5C 635.951,180.517 634.784,180.684 633.5,180C 634.376,178.415 635.709,177.415 637.5,177C 636.673,175.107 636.673,172.941 637.5,170.5C 636.016,167.596 633.683,165.929 630.5,165.5C 630.752,168.32 630.252,170.986 629,173.5C 627.708,174.791 626.542,174.791 625.5,173.5C 627.858,168.86 629.025,163.86 629,158.5C 628.944,144.445 629.111,130.445 629.5,116.5C 636.755,116.187 643.921,116.52 651,117.5C 651.667,134.167 651.667,150.833 651,167.5C 649.923,174.987 646.757,181.32 641.5,186.5 Z"/></g>
<g><path style="opacity:1" fill="#0c66ac" d="M 122.5,165.5 C 123.117,165.611 123.617,165.944 124,166.5C 124.667,185.833 124.667,205.167 124,224.5C 123.586,224.957 123.086,225.291 122.5,225.5C 117.248,222.291 112.082,218.958 107,215.5C 106.333,204.5 106.333,193.5 107,182.5C 112.004,176.664 117.171,170.997 122.5,165.5 Z"/></g>
<g><path style="opacity:1" fill="#0b7ac3" d="M 716.5,182.5 C 712.749,188.401 707.416,192.234 700.5,194C 691.562,195.548 682.562,195.881 673.5,195C 666.966,193.822 660.8,191.656 655,188.5C 655.754,183.057 657.254,177.723 659.5,172.5C 660.723,171.386 662.056,171.219 663.5,172C 671.656,176.709 680.323,178.543 689.5,177.5C 689.389,178.117 689.056,178.617 688.5,179C 691.534,179.66 694.367,179.16 697,177.5C 699.713,173.79 700.213,169.79 698.5,165.5C 700.861,165.674 703.194,166.007 705.5,166.5C 705.519,168.06 705.852,169.56 706.5,171C 705.576,172.811 704.743,172.645 704,170.5C 703.202,172.259 703.369,173.926 704.5,175.5C 705.192,174.975 705.692,174.308 706,173.5C 706.333,173.833 706.667,174.167 707,174.5C 708.12,172.586 708.286,170.752 707.5,169C 708.127,166.865 708.627,164.698 709,162.5C 709.267,167.564 709.767,172.564 710.5,177.5C 711.086,177.709 711.586,178.043 712,178.5C 711.264,175.008 712.764,173.008 716.5,172.5C 716.803,175.894 716.803,179.227 716.5,182.5 Z"/></g>
</svg>
